# xmcd
#
# Track frame offsets:
#	150
#	19406
#	37757
#	59370
#	77543
#	99225
#	126479
#	154849
#	174799
#	197537
#	213862
#	237025
#
# Disc length: 3379 seconds
#
# Revision: 2
# Processed by: cddbd v1.5.2PL0 Copyright (c) Steve Scherf et al.
# Submitted via: EasyCDDAExtractor 10.0.3.1
#
DISCID=8b0d310c
DTITLE=Madonna - Hard Candy
DYEAR=2008
DGENRE=Pop
TTITLE0=Candy Shop
TTITLE1=4 Minutes [Ft. Justin Timberlake and Timbaland]
TTITLE2=Give It 2 Me
TTITLE3=Heartbeat
TTITLE4=Miles Away
TTITLE5=She's Not Me
TTITLE6=Incredible
TTITLE7=Beat Goes On [Ft. Kanye West]
TTITLE8=Dance 2night
TTITLE9=Spanish Lesson
TTITLE10=Devil Wouldn't Recognize You
TTITLE11=Voices
EXTD=
EXTT0=
EXTT1=
EXTT2=
EXTT3=
EXTT4=
EXTT5=
EXTT6=
EXTT7=
EXTT8=
EXTT9=
EXTT10=
EXTT11=
PLAYORDER=
